<svg width="20" height="20" viewBox="0 0 20 20" fill="none" xmlns="http://www.w3.org/2000/svg">
<path d="M6.99072 2.9436V2.9436C6.06172 2.9436 5.59721 2.9436 5.20855 3.00516C3.06909 3.34402 1.39114 5.02197 1.05228 7.16143C0.990723 7.55009 0.990723 8.0146 0.990723 8.9436V10.9436C0.990723 13.7439 0.990723 15.144 1.53569 16.2136C2.01506 17.1544 2.77996 17.9193 3.72077 18.3986C4.79033 18.9436 6.19046 18.9436 8.99072 18.9436H10.9907C13.791 18.9436 15.1911 18.9436 16.2607 18.3986C17.2015 17.9193 17.9664 17.1544 18.4458 16.2136C18.9907 15.144 18.9907 13.7439 18.9907 10.9436V8.9436C18.9907 8.0146 18.9907 7.55009 18.9292 7.16143C18.5903 5.02197 16.9124 3.34402 14.7729 3.00516C14.3842 2.9436 13.9197 2.9436 12.9907 2.9436V2.9436M6.99072 2.9436V4.4436M6.99072 2.9436V0.943604M6.99072 2.9436H12.9907M12.9907 2.9436V0.943604M12.9907 2.9436V4.4436M8.10201 9.64245H7.52983C6.52586 9.64245 6.02388 9.64245 5.87659 9.87453C5.83146 9.94564 5.80503 10.027 5.79974 10.1111C5.78248 10.3854 6.18859 10.6804 7.00082 11.2706L7.46372 11.6069C7.68971 11.7711 7.8027 11.8532 7.85736 11.9693C7.87522 12.0073 7.88823 12.0473 7.89609 12.0885C7.92014 12.2146 7.87699 12.3475 7.79067 12.6131L7.61385 13.1573C7.30361 14.1121 7.14849 14.5895 7.3237 14.8013C7.37739 14.8662 7.44659 14.9165 7.5249 14.9475C7.78047 15.0487 8.18659 14.7536 8.99881 14.1635L9.46172 13.8272C9.6877 13.663 9.80069 13.5809 9.92806 13.5648C9.96967 13.5596 10.0118 13.5596 10.0534 13.5648C10.1808 13.5809 10.2937 13.663 10.5197 13.8272L10.9826 14.1635C11.7949 14.7536 12.201 15.0487 12.4565 14.9475C12.5349 14.9165 12.6041 14.8662 12.6577 14.8013C12.833 14.5895 12.6778 14.1121 12.3676 13.1573L12.1908 12.6131C12.1045 12.3475 12.0613 12.2146 12.0854 12.0885C12.0932 12.0473 12.1062 12.0073 12.1241 11.9693C12.1787 11.8532 12.2917 11.7711 12.5177 11.6069L12.9806 11.2706C13.7929 10.6804 14.199 10.3854 14.1817 10.1111C14.1764 10.027 14.15 9.94564 14.1049 9.87453C13.9576 9.64245 13.4556 9.64245 12.4516 9.64245H11.8794C11.6001 9.64245 11.4604 9.64245 11.3479 9.5806C11.3112 9.56039 11.2771 9.53564 11.2465 9.50693C11.153 9.41905 11.1098 9.28622 11.0235 9.02056L10.8467 8.47639C10.5364 7.52156 10.3813 7.04414 10.1151 6.97578C10.0335 6.95484 9.94795 6.95484 9.86638 6.97578C9.60014 7.04414 9.44501 7.52156 9.13477 8.47639L8.95796 9.02056C8.87164 9.28622 8.82848 9.41905 8.7349 9.50693C8.70432 9.53564 8.67026 9.56039 8.6335 9.5806C8.521 9.64245 8.38134 9.64245 8.10201 9.64245Z" stroke="#000" stroke-opacity="0.8" stroke-width="1.5" stroke-linecap="round" stroke-linejoin="round"/>
</svg>
