<svg width="20" height="20" viewBox="0 0 20 20" fill="none" xmlns="http://www.w3.org/2000/svg">
<path d="M3.53922 5.04222C6.17188 2.40956 7.4882 1.09323 9.08142 0.84089C9.59596 0.759394 10.1201 0.759394 10.6347 0.84089C12.2279 1.09323 13.5442 2.40956 16.1769 5.04222V5.04222C17.323 6.18839 17.8961 6.76148 18.2531 7.46208C18.3712 7.69381 18.4709 7.93446 18.5512 8.18181C18.7942 8.92963 18.7942 9.7401 18.7942 11.361V15.6028C18.7942 17.2479 17.4606 18.5815 15.8155 18.5815V18.5815C14.1704 18.5815 12.8368 17.2479 12.8368 15.6028V14.6099C12.8368 12.9648 11.5031 11.6312 9.85805 11.6312V11.6312C8.21294 11.6312 6.87932 12.9648 6.87932 14.6099V15.6028C6.87932 17.2479 5.5457 18.5815 3.9006 18.5815V18.5815C2.2555 18.5815 0.921875 17.2479 0.921875 15.6028V11.361C0.921875 9.7401 0.921875 8.92963 1.16486 8.18181C1.24522 7.93446 1.34491 7.69381 1.46298 7.46208C1.81995 6.76148 2.39304 6.18839 3.53922 5.04222V5.04222Z" stroke="#000" stroke-width="1.48936" stroke-linejoin="round"/>
</svg>
