<svg width="20" height="20" viewBox="0 0 20 20" fill="none" xmlns="http://www.w3.org/2000/svg">
<path d="M9.90497 9.79853H18.9017M18.9017 9.79853L16.4026 7.29943M18.9017 9.79853L16.4026 12.2976M12.9039 6.29978V6.19982C12.9039 3.95079 12.9039 2.82627 12.3312 2.03796C12.1462 1.78337 11.9223 1.55947 11.6677 1.3745C10.8794 0.801758 9.75487 0.801758 7.50584 0.801758H6.30626C4.05723 0.801758 2.93272 0.801758 2.1444 1.3745C1.88981 1.55947 1.66592 1.78337 1.48095 2.03796C0.908203 2.82627 0.908203 3.95079 0.908203 6.19982V13.3972C0.908203 15.6463 0.908203 16.7708 1.48095 17.5591C1.66592 17.8137 1.88981 18.0376 2.1444 18.2226C2.93272 18.7953 4.05723 18.7953 6.30626 18.7953H7.50584C9.75487 18.7953 10.8794 18.7953 11.6677 18.2226C11.9223 18.0376 12.1462 17.8137 12.3312 17.5591C12.9039 16.7708 12.9039 15.6463 12.9039 13.3972V13.2973" stroke="#000" stroke-opacity="0.8" stroke-width="1.49946" stroke-linecap="round" stroke-linejoin="round"/>
</svg>
