<svg width="20" height="20" viewBox="0 0 20 20" fill="none" xmlns="http://www.w3.org/2000/svg">
<path d="M5.99072 15.9392V12.9392M9.99072 10.9392V15.9392M13.9907 15.9392V8.93921M4.49072 9.43921L5.95532 7.73051C6.90619 6.62116 8.37442 6.09988 9.81195 6.36125V6.36125C11.8028 6.72322 13.8445 6.08543 15.2753 4.65463L15.4907 4.43921M8.19072 18.9392H11.7907C14.7905 18.9392 16.2904 18.9392 17.3419 18.1753C17.6814 17.9286 17.9801 17.6299 18.2268 17.2904C18.9907 16.2389 18.9907 14.739 18.9907 11.7392V8.13921C18.9907 5.13942 18.9907 3.63953 18.2268 2.58807C17.9801 2.24849 17.6814 1.94986 17.3419 1.70314C16.2904 0.939209 14.7905 0.939209 11.7907 0.939209H8.19072C5.19094 0.939209 3.69104 0.939209 2.63958 1.70314C2.3 1.94986 2.00137 2.24849 1.75465 2.58807C0.990723 3.63953 0.990723 5.13942 0.990723 8.13921V11.7392C0.990723 14.739 0.990723 16.2389 1.75465 17.2904C2.00137 17.6299 2.3 17.9286 2.63958 18.1753C3.69104 18.9392 5.19094 18.9392 8.19072 18.9392Z" stroke="#000" stroke-opacity="0.8" stroke-width="1.5" stroke-linecap="round" stroke-linejoin="round"/>
</svg>
