<svg width="20" height="20" viewBox="0 0 20 20" fill="none" xmlns="http://www.w3.org/2000/svg">
<path d="M0.990723 10.9307V11.7307C0.990723 14.7304 0.990723 16.2303 1.75465 17.2818C2.00137 17.6214 2.3 17.92 2.63958 18.1667C3.69104 18.9307 5.19094 18.9307 8.19072 18.9307H11.7907C14.7905 18.9307 16.2904 18.9307 17.3419 18.1667C17.6814 17.92 17.9801 17.6214 18.2268 17.2818C18.9907 16.2303 18.9907 14.7304 18.9907 11.7307V10.9307M0.990723 10.9307V10.9307C0.990723 9.0669 0.990723 8.13501 1.2952 7.39993C1.70118 6.41982 2.47988 5.64112 3.45999 5.23515C4.19507 4.93066 5.12696 4.93066 6.99072 4.93066H12.9907C14.8545 4.93066 15.7864 4.93066 16.5215 5.23515C17.5016 5.64112 18.2803 6.41982 18.6862 7.39993C18.9907 8.13501 18.9907 9.0669 18.9907 10.9307V10.9307M0.990723 10.9307H18.9907M7.99072 7.93066H11.9907M5.99072 4.93066V4.93066C5.99072 2.72153 7.78158 0.930664 9.99072 0.930664V0.930664C12.1999 0.930664 13.9907 2.72153 13.9907 4.93066V4.93066" stroke="#000" stroke-opacity="0.8" stroke-width="1.5" stroke-linecap="round" stroke-linejoin="round"/>
</svg>
